<?xml version="1.0" encoding="UTF-8"?>
<svg version="1.1" xmlns="http://www.w3.org/2000/svg" width="1080" height="1080">
<path d="M0 0 C356.4 0 712.8 0 1080 0 C1080 356.4 1080 712.8 1080 1080 C723.6 1080 367.2 1080 0 1080 C0 723.6 0 367.2 0 0 Z " fill="#5F6FFF" transform="translate(0,0)"/>
<path d="M0 0 C356.4 0 712.8 0 1080 0 C1080 356.4 1080 712.8 1080 1080 C723.6 1080 367.2 1080 0 1080 C0 723.6 0 367.2 0 0 Z M462 21 C459.44414059 21.3667936 456.88815119 21.73268264 454.33203125 22.09765625 C360.67544842 36.06966341 271.39186849 77.73302311 183.94921875 152.296875 C181.78877724 154.30095163 179.57343022 156.22704639 177.3359375 158.14453125 C172.47697856 162.38066471 167.92748257 166.92206254 163.3815918 171.48803711 C161.93974779 172.93524385 160.49262884 174.37702026 159.04492188 175.81835938 C153.81719111 181.04194909 148.78260158 186.36562893 144 192 C143.03870062 193.10628643 142.07649295 194.21178441 141.11328125 195.31640625 C110.37150301 230.85565826 85.01249865 269.98821395 64 312 C63.54286621 312.90105469 63.08573242 313.80210937 62.61474609 314.73046875 C35.83654454 367.65870368 21.13590781 426.48173138 14.25 485.125 C14.12214111 486.17824463 13.99428223 487.23148926 13.86254883 488.31665039 C13.19119293 494.37113729 12.93065841 500.32570197 12.96777344 506.40966797 C12.97009979 507.14322006 12.97242615 507.87677216 12.974823 508.6325531 C12.98083514 510.42171165 12.99008046 512.21085885 13 514 C45.91765817 514.04594294 78.83530792 514.0811027 111.75299092 514.10213066 C115.65376809 514.10463158 119.55454519 514.10722027 123.45532227 514.10986328 C124.23178095 514.1103879 125.00823964 514.11091252 125.80822738 514.11145304 C138.32212529 514.12011667 150.83600452 514.13586393 163.3498914 514.15430559 C176.2242519 514.17311791 189.09860272 514.18414046 201.97297639 514.18817699 C209.89442761 514.19089876 217.81582598 514.19944201 225.7372609 514.21583293 C231.84782166 514.22782001 237.95834351 514.2288832 244.06891441 514.22621536 C246.54897763 514.22675844 249.02904314 514.230639 251.50909424 514.23841095 C301.73190729 514.38786539 355.17604143 509.75618474 398 481 C399.08796875 480.28328125 400.1759375 479.5665625 401.296875 478.828125 C412.44483451 471.30725279 423.00592565 463.03226265 432.89453125 453.91796875 C434.61685185 452.34902735 436.36108928 450.88041241 438.1875 449.4375 C441.19049259 446.83490642 443.66216152 444.03716292 446.23046875 441.015625 C447.83077503 439.19275957 449.48869775 437.53961978 451.25 435.875 C473.75581787 413.62036313 489.28697427 383.28478016 501.0625 354.30126953 C501.69821285 352.74079314 502.34440792 351.18455372 503 349.63232422 C505.68415568 343.17099369 507.68917715 336.62946145 509.5 329.875 C509.80405762 328.75496582 510.10811523 327.63493164 510.42138672 326.48095703 C512.72658169 317.70693945 514.37061323 308.91907492 515.49414062 299.91748047 C516.50363937 292.64427028 518.45120251 286.77883001 524.39453125 282.125 C530.74008507 279.17262601 535.38589506 277.53964355 542.3203125 279.734375 C547.73732156 281.91548096 551.98786372 284.63283671 555.05932617 289.77270508 C556.23111539 292.54722703 556.65486183 295.15931225 557.11328125 298.13671875 C557.30647949 299.34529541 557.49967773 300.55387207 557.69873047 301.79907227 C557.90127441 303.08225342 558.10381836 304.36543457 558.3125 305.6875 C560.12941672 316.75675493 562.38091586 327.37932191 566 338 C566.51855036 339.58843685 567.03676267 341.17698408 567.5546875 342.765625 C579.4285711 378.51626396 598.45360168 410.3787673 624 438 C624.87527344 438.97839844 625.75054688 439.95679688 626.65234375 440.96484375 C664.81074267 483.55932508 722.53194347 513.23737962 779.25 520.125 C785.78280472 520.94663512 789.44632226 523.14324049 793.8125 528 C797.93923688 533.65952486 797.7599511 540.18664531 797 547 C795.08555036 552.3226851 792.1859084 555.36361077 787.19262695 558.07617188 C782.70084704 559.96871115 777.90185707 560.65146985 773.125 561.5 C770.8720454 561.92784631 768.61944045 562.35753786 766.3671875 562.7890625 C765.27374023 562.99563477 764.18029297 563.20220703 763.05371094 563.41503906 C740.07608231 567.81657393 719.00438863 575.74564508 698 586 C697.26523437 586.35707031 696.53046875 586.71414063 695.7734375 587.08203125 C672.88078681 598.34880639 652.17629569 614.22232738 634 632 C633.31309082 632.66644531 632.62618164 633.33289063 631.91845703 634.01953125 C624.09538184 641.62594539 616.46019061 649.17602317 610 658 C609.00794633 659.31390314 608.01574503 660.62769482 607.0234375 661.94140625 C583.25093379 693.76172738 570.78120335 728.25299742 565.3125 767.375 C565.19302002 768.2294873 565.07354004 769.08397461 564.95043945 769.96435547 C562.8172871 786.15530624 562.862382 802.25716553 562.88647461 818.55810547 C562.88675702 821.23994039 562.88664159 823.92177258 562.8860321 826.60360718 C562.88551053 832.35358016 562.88861879 838.1035417 562.89426994 843.85351181 C562.90243496 852.16676092 562.90500526 860.48000456 562.90625793 868.79325725 C562.90844063 882.28453791 562.91507942 895.77581248 562.92456055 909.26708984 C562.93375496 922.36409474 562.94082584 935.46109799 562.94506836 948.55810547 C562.94533108 949.36689014 562.94559381 950.17567481 562.94586449 951.0089681 C562.94716963 955.06684659 562.94843332 959.12472509 562.94967639 963.1826036 C562.96002463 996.78840681 562.97762156 1030.39420266 563 1064 C607.97779525 1064.09170769 652.95558054 1064.1621158 697.93345097 1064.20426132 C703.2526719 1064.20926369 708.57189263 1064.21444102 713.89111328 1064.21972656 C715.47944533 1064.22130043 715.47944533 1064.22130043 717.09986489 1064.22290608 C734.20839325 1064.24027525 751.31686743 1064.27179357 768.42536373 1064.30861118 C786.00167947 1064.34611795 803.57796697 1064.36825636 821.15432107 1064.37635398 C831.9855524 1064.38182163 842.81663054 1064.39904263 853.64781468 1064.43166587 C861.09169831 1064.45293417 868.53550362 1064.45917242 875.97941537 1064.45400551 C880.26365938 1064.45146273 884.54763715 1064.45514809 888.83183289 1064.4768219 C932.71965993 1064.68747885 972.00013357 1055.19281609 1006 1026 C1006.84433594 1025.27941406 1007.68867187 1024.55882812 1008.55859375 1023.81640625 C1027.99398904 1006.80664531 1042.15642472 985.18755633 1051 961 C1051.66322266 959.2984375 1051.66322266 959.2984375 1052.33984375 957.5625 C1060.89816004 934.25474499 1060.5829823 910.02175072 1060.49358058 885.56871259 C1060.48024892 880.69940348 1060.49036178 875.83013005 1060.49734497 870.96081543 C1060.50735897 861.45326158 1060.49623341 851.94584838 1060.47764437 842.43831203 C1060.4567231 831.33227438 1060.45702085 820.22626593 1060.45798953 809.12021228 C1060.45898792 789.28087712 1060.44074776 769.44160672 1060.41162109 749.60229492 C1060.3834713 730.41803813 1060.36927904 711.23383829 1060.37060547 692.04956055 C1060.37072534 690.2779748 1060.37072534 690.2779748 1060.37084763 688.47059945 C1060.37092834 687.29144448 1060.37100905 686.11228952 1060.3710922 684.89740258 C1060.37247795 662.96643069 1060.36065481 641.03548267 1060.34278577 619.10451857 C1060.336794 611.39186568 1060.33463153 603.67921723 1060.33372116 595.96656227 C1060.33234561 586.5432882 1060.32326217 577.12005438 1060.30505554 567.69679735 C1060.29592789 562.90326829 1060.28968756 558.10979007 1060.29224396 553.31625175 C1060.30290091 527.56495103 1060.01690217 501.86064487 1056.31835938 476.31835938 C1055.93169479 473.50258722 1055.60037232 470.6817877 1055.265625 467.859375 C1049.08434778 417.47894784 1034.35690659 367.99596824 1013 322 C1012.55688477 321.0315918 1012.11376953 320.06318359 1011.65722656 319.06542969 C1004.86858328 304.25339354 997.23241302 290.055945 989 276 C988.48260254 275.11119141 987.96520508 274.22238281 987.43212891 273.30664062 C977.60820612 256.47276087 966.67687013 240.59349593 955 225 C954.36795654 224.15526123 954.36795654 224.15526123 953.72314453 223.29345703 C947.44495375 214.9364276 940.82500368 206.91488798 934 199 C933.07767578 197.92492187 933.07767578 197.92492187 932.13671875 196.828125 C923.08964411 186.37756623 913.58298037 176.39635645 903.81152344 166.6262207 C901.99644443 164.80894012 900.18956093 162.98376167 898.3828125 161.15820312 C892.30085761 155.04727004 886.16169143 149.27604112 879.40380859 143.91137695 C876.69396421 141.7566571 874.1034805 139.49478351 871.51489258 137.19750977 C863.36217863 129.96611212 854.84027411 123.36539114 846 117 C844.83742676 116.16251221 844.83742676 116.16251221 843.65136719 115.30810547 C824.48089961 101.56505118 804.63699224 89.40849199 784 78 C783.30986816 77.61360352 782.61973633 77.22720703 781.90869141 76.82910156 C738.57006469 52.56858253 689.863705 35.80333423 641.14160156 26.61328125 C638.13240999 26.02584814 635.14154784 25.38276776 632.1484375 24.71875 C578.09951318 12.97905286 516.62010922 12.40180146 462 21 Z " fill="#FEFEFF" transform="translate(0,0)"/>
<path d="M0 0 C31.35488962 -0.02290774 62.70977699 -0.04055841 94.06467302 -0.05106533 C97.78261731 -0.05231575 101.50056159 -0.0536101 105.21850586 -0.05493164 C106.3285759 -0.05532511 106.3285759 -0.05532511 107.46107159 -0.05572652 C119.37869064 -0.06005503 131.29630477 -0.06792676 143.21392091 -0.0771528 C155.48034525 -0.0865683 167.74676705 -0.09207216 180.01319486 -0.09408849 C186.88708377 -0.09532682 193.76096241 -0.09828568 200.63484764 -0.10573006 C338.92126323 -0.25074733 338.92126323 -0.25074733 395 40 C396.61261719 41.14082031 396.61261719 41.14082031 398.2578125 42.3046875 C416.95860727 55.91886609 435.1756993 72.42053204 449 91 C449.49306641 91.65967773 449.98613281 92.31935547 450.49414062 92.99902344 C474.24137513 124.90144701 488.88862801 158.37387208 494 198 C494.14646973 199.10166504 494.14646973 199.10166504 494.29589844 200.22558594 C494.94291195 205.14245293 495.54978782 210.06081878 496 215 C496.08471778 215.92316293 496.16943556 216.84632586 496.25672054 217.79746342 C497.26647764 230.62188783 497.13284558 243.44803043 497.11352539 256.30444336 C497.11324292 258.94701744 497.11335854 261.58958874 497.1139679 264.23216248 C497.1144891 269.8942659 497.11138471 275.55635768 497.10573006 281.21845818 C497.09756002 289.40463494 497.09499423 297.59080615 497.09374207 305.77698655 C497.09156014 319.06250918 497.08492349 332.34802564 497.07543945 345.63354492 C497.06624301 358.52970346 497.05917313 371.42586032 497.05493164 384.32202148 C497.05453756 385.51688243 497.05453756 385.51688243 497.05413551 386.73588198 C497.05283035 390.73255355 497.05156667 394.72922513 497.05032361 398.72589672 C497.03997779 431.81726898 497.02238301 464.90863366 497 498 C452.89692541 498.04585038 408.79385335 498.08105616 364.69075959 498.10213066 C359.47539893 498.10463185 354.26003832 498.10722052 349.04467773 498.10986328 C347.48735368 498.11065021 347.48735368 498.11065021 345.89856853 498.11145304 C329.12241214 498.12013844 312.34626955 498.13589807 295.57012133 498.15430559 C278.33620166 498.17305667 261.10228919 498.1841277 243.86835974 498.18817699 C233.24753512 498.19091127 222.62674954 498.19952442 212.00593694 498.21583293 C204.70737762 498.22646421 197.40883828 498.22958683 190.11027179 498.22700275 C185.90926572 498.22573095 181.70832753 498.2275793 177.50733376 498.23841095 C132.49969009 498.3486058 132.49969009 498.3486058 115.75 493.3125 C114.84145264 493.04977295 113.93290527 492.7870459 112.99682617 492.51635742 C86.26462654 484.55182756 64.03054329 470.23480937 44 451 C43.15707397 450.19212036 43.15707397 450.19212036 42.29711914 449.36791992 C15.6777123 423.38187515 0.18172183 383.96099972 -0.44041872 347.09265828 C-0.51918916 340.0935184 -0.4993682 333.09496644 -0.46426249 326.09562302 C-0.44675955 321.70605937 -0.45285008 317.31651446 -0.45587158 312.92692566 C-0.45795472 305.34742651 -0.44555547 297.76806659 -0.42292023 290.18860245 C-0.39021632 279.23040351 -0.37997455 268.27227093 -0.37496826 257.31402849 C-0.36624422 239.52897576 -0.33970771 221.74399701 -0.30175781 203.95898438 C-0.26496247 186.69694383 -0.23668767 169.43492348 -0.21972656 152.17285156 C-0.21867567 151.10630007 -0.21762477 150.03974857 -0.21654204 148.94087733 C-0.21132135 143.58954984 -0.20626665 138.2382222 -0.20129442 132.88689446 C-0.15992256 88.59121178 -0.08955362 44.29560974 0 0 Z " fill="#5F6FFF" transform="translate(13,566)"/>
<path d="M0 0 C12.30984282 8.36266496 20.71159817 19.55445782 24.0625 34.203125 C24.32957032 37.35497321 24.34263353 40.47911524 24.3125 43.640625 C24.32410156 44.85202148 24.32410156 44.85202148 24.3359375 46.08789062 C24.29076109 60.10387034 18.20934689 73.00557457 8.5078125 83.01953125 C-0.63067787 91.17994038 -11.66560541 96.42395709 -23.9375 97.203125 C-24.69417969 97.2546875 -25.45085938 97.30625 -26.23046875 97.359375 C-39.88950112 97.88054635 -52.92714834 92.79235955 -63.25 83.953125 C-73.99152763 73.65987942 -79.88263967 61.81861856 -80.28125 46.95654297 C-80.46756209 30.54070136 -76.09134608 19.22287544 -64.9140625 6.98828125 C-47.76457144 -9.61931139 -20.21073251 -12.36294808 0 0 Z " fill="#5F6FFF" transform="translate(1035.9375,23.796875)"/>
</svg>
